<?xml version="1.0" encoding="UTF-8"?>
<svg width="97px" height="30px" viewBox="0 0 97 30" version="1.1" xmlns="http://www.w3.org/2000/svg" xmlns:xlink="http://www.w3.org/1999/xlink">
    <!-- Generator: Sketch 51.3 (57544) - http://www.bohemiancoding.com/sketch -->
    <title>TODI_logo_pink</title>
    <desc>Created with Sketch.</desc>
    <defs>
        <path d="M15.28,16.44 L15.28,39 L9.04,39 L9.04,16.44 L1.12,16.44 L1.12,11.04 L23.2,11.04 L23.2,16.44 L15.28,16.44 Z M46,18.48 C44.399992,16.7199912 42.433345,15.84 40.1,15.84 C37.766655,15.84 35.800008,16.7199912 34.2,18.48 C32.599992,20.2400088 31.8,22.3666542 31.8,24.86 C31.8,27.3533458 32.599992,29.4733246 34.2,31.22 C35.800008,32.9666754 37.766655,33.84 40.1,33.84 C42.433345,33.84 44.399992,32.9666754 46,31.22 C47.600008,29.4733246 48.4,27.3533458 48.4,24.86 C48.4,22.3666542 47.600008,20.2400088 46,18.48 Z M40.08,39.28 C35.946646,39.28 32.4666808,37.9000138 29.64,35.14 C26.8133192,32.3799862 25.4,28.9466872 25.4,24.84 C25.4,20.7333128 26.8133192,17.3000138 29.64,14.54 C32.4666808,11.7799862 35.946646,10.4 40.08,10.4 C44.213354,10.4 47.6933192,11.7799862 50.52,14.54 C53.3466808,17.3000138 54.76,20.7333128 54.76,24.84 C54.76,28.9466872 53.3466808,32.3799862 50.52,35.14 C47.6933192,37.9000138 44.213354,39.28 40.08,39.28 Z M81.4,14.7 C84.06668,17.1400122 85.4,20.5333116 85.4,24.88 C85.4,29.2266884 84.100013,32.666654 81.5,35.2 C78.899987,37.733346 74.93336,39 69.6,39 L60.04,39 L60.04,11.04 L69.92,11.04 C74.9066916,11.04 78.73332,12.2599878 81.4,14.7 Z M76.82,31.32 C78.353341,29.8799928 79.12,27.7866804 79.12,25.04 C79.12,22.2933196 78.353341,20.1800074 76.82,18.7 C75.286659,17.2199926 72.9333492,16.48 69.76,16.48 L66.28,16.48 L66.28,33.48 L70.24,33.48 C73.0933476,33.48 75.286659,32.7600072 76.82,31.32 Z M90.8,11.04 L97.04,11.04 L97.04,39 L90.8,39 L90.8,11.04 Z" id="path-1"></path>
    </defs>
    <g id="Page-1" stroke="none" stroke-width="1" fill="none" fill-rule="evenodd">
        <g id="TODI_logo_pink" transform="translate(-1.000000, -10.000000)">
            <g id="TODI">
                <use fill="#000000" xlink:href="#path-1"></use>
                <use fill="#FB1470" xlink:href="#path-1"></use>
            </g>
        </g>
    </g>
</svg>